# Blender 4.4.3
# www.blender.org
mtllib MacmeshLeftArm1_leftArm1.mtl
o node_Scene_134_mesh_mesh0
v 0.408798 1.252960 0.061101
v 0.408981 1.270416 -0.016264
v 0.292127 1.290679 -0.035813
v 0.291961 1.263483 0.078870
v 0.408940 1.220534 -0.065164
v 0.292152 1.221019 -0.099492
v 0.255376 1.316864 -0.029285
v 0.255231 1.283284 0.088210
v 0.255431 1.240934 -0.122114
v 0.409164 1.147424 -0.052242
v 0.292391 1.142733 -0.082189
v 0.292127 1.290679 -0.035813
v 0.167770 1.240660 -0.122143
v 0.167714 1.316591 -0.029314
v 0.167569 1.283010 0.088181
v 0.409045 1.173207 0.068421
v 0.408798 1.252960 0.061101
v 0.291961 1.263483 0.078870
v 0.292291 1.157477 0.082080
v 0.255231 1.283284 0.088210
v 0.255631 1.152974 0.108396
v 0.167569 1.283010 0.088181
v 0.167969 1.152700 0.108367
v 0.292458 1.112392 0.004512
v 0.255866 1.088051 0.008317
v 0.168205 1.087777 0.008288
v 0.292391 1.142733 -0.082189
v 0.255782 1.126748 -0.102262
v 0.409164 1.147424 -0.052242
v 0.409224 1.121259 0.014726
v 0.168120 1.126474 -0.102291
v 0.408981 1.270416 -0.016264
v 0.408798 1.252960 0.061101
v 0.445264 1.243847 0.058840
v 0.445455 1.259022 -0.021494
v 0.408940 1.220534 -0.065164
v 0.409045 1.173207 0.068421
v 0.445473 1.175799 0.068566
v 0.445368 1.223993 -0.069156
v 0.409164 1.147424 -0.052242
v 0.445570 1.157545 -0.054469
v 0.409224 1.121259 0.014726
v 0.445624 1.133256 0.014940
v 0.459398 1.201347 -0.001134
v 0.255782 1.126748 -0.102262
v 0.168120 1.126474 -0.102291
v 0.145155 1.134452 0.000916
v 0.145031 1.167994 0.058625
v 0.133529 1.199861 -0.009400
v 0.145105 1.157025 -0.063590
v 0.144928 1.215270 -0.076463
v 0.144786 1.246862 0.056238
v 0.144718 1.277777 -0.032100
v 0.168205 1.087777 0.008288
v 0.167969 1.152700 0.108367
v 0.168120 1.126474 -0.102291
v 0.167770 1.240660 -0.122143
v 0.167569 1.283010 0.088181
v 0.167714 1.316591 -0.029314
v 0.292391 1.142733 -0.082189
vn 0.1753 0.9570 0.2313
vn 0.2467 0.9263 -0.2849
vn 0.3561 0.9229 -0.1462
vn 0.4310 0.8724 0.2305
vn 0.1009 0.4358 -0.8944
vn 0.3922 0.2704 -0.8792
vn 0.4220 0.8748 -0.2382
vn 0.4313 0.8723 0.2305
vn 0.4221 0.8747 -0.2381
vn 0.3072 0.9297 -0.2032
vn 0.3339 0.8131 0.4768
vn 0.4501 0.5202 -0.7259
vn 0.3922 0.2704 -0.8793
vn 0.1511 0.3186 -0.9358
vn 0.1648 -0.4981 -0.8513
vn 0.4112 -0.6540 -0.6349
vn 0.3649 -0.1377 -0.9208
vn 0.5178 0.7312 -0.4440
vn 0.4747 0.3812 -0.7933
vn 0.3071 0.9297 -0.2033
vn 0.3794 0.6956 -0.6101
vn -0.3931 0.7202 -0.5716
vn -0.4358 0.8613 -0.2613
vn 0.1852 0.9422 0.2793
vn 0.3070 0.9297 -0.2033
vn -0.2930 0.9557 0.0285
vn -0.6929 0.6891 0.2124
vn 0.1124 -0.3468 0.9312
vn 0.0904 0.0942 0.9914
vn 0.1897 -0.0037 0.9818
vn 0.3337 -0.0030 0.9427
vn 0.2972 0.0731 0.9520
vn 0.3340 -0.0030 0.9426
vn 0.3921 0.3042 0.8682
vn 0.3341 -0.0030 0.9426
vn 0.2195 0.1192 0.9683
vn 0.2971 0.0732 0.9520
vn -0.3453 0.1165 0.9312
vn -0.6982 0.1029 0.7085
vn 0.1267 -0.7668 0.6293
vn 0.3095 -0.8165 0.4874
vn 0.3413 -0.8941 0.2901
vn 0.3384 -0.7919 0.5084
vn 0.3414 -0.8940 0.2900
vn 0.4464 -0.6102 0.6546
vn 0.3132 -0.9405 0.1321
vn -0.3617 -0.7781 0.5135
vn 0.3381 -0.7919 0.5085
vn -0.4859 -0.8647 0.1275
vn 0.4113 -0.6541 -0.6348
vn 0.3997 -0.8977 0.1852
vn 0.3195 -0.7996 -0.5085
vn 0.1647 -0.4981 -0.8513
vn 0.2014 -0.9206 -0.3345
vn 0.3755 -0.7293 -0.5719
vn 0.3997 -0.8977 0.1853
vn 0.1910 -0.9283 -0.3189
vn -0.2969 -0.9512 -0.0843
vn -0.6883 -0.6890 -0.2269
vn 0.1232 -0.4459 0.8866
vn 0.2986 -0.7799 0.5502
vn 0.1257 -0.7043 0.6987
vn 0.2468 0.9263 -0.2849
vn 0.6363 0.7534 0.1659
vn 0.4670 0.8300 -0.3050
vn 0.1009 0.4357 -0.8944
vn 0.1230 0.9044 -0.4086
vn 0.0903 0.0946 0.9914
vn 0.0610 -0.1663 0.9842
vn 0.0904 0.0946 0.9914
vn 0.0501 0.1093 0.9927
vn 0.1105 0.0826 0.9904
vn 0.0705 0.7468 -0.6613
vn 0.1229 0.9044 -0.4085
vn -0.1266 0.8087 -0.5745
vn 0.1335 -0.3897 -0.9112
vn 0.1510 0.3185 -0.9358
vn -0.0392 -0.2330 -0.9717
vn 0.1647 -0.4980 -0.8514
vn -0.0391 -0.2330 -0.9717
vn 0.2088 -0.7656 -0.6085
vn 0.2155 -0.5547 -0.8036
vn 0.2088 -0.7656 -0.6084
vn 0.2228 -0.9645 -0.1415
vn 0.5293 -0.6794 -0.5083
vn 0.5508 -0.7899 0.2696
vn 0.1233 -0.4459 0.8866
vn 0.2107 -0.8854 0.4144
vn 0.2312 -0.8948 0.3819
vn 0.0316 -0.3757 0.9262
vn 0.8876 0.4596 0.0286
vn 0.7980 0.5701 0.1954
vn 0.9999 0.0111 0.0005
vn 0.9813 0.1363 0.1359
vn 0.9842 0.0023 0.1771
vn 0.9999 0.0110 0.0006
vn 0.9831 -0.1797 0.0365
vn 0.9854 0.0038 -0.1703
vn 0.9774 0.2084 -0.0356
vn 0.9999 0.0110 0.0004
vn 0.9821 -0.1246 -0.1410
vn 0.8957 -0.4396 -0.0667
vn 0.8994 -0.3840 -0.2089
vn 0.9999 0.0109 0.0005
vn 0.2605 -0.2083 -0.9427
vn 0.2896 -0.2173 -0.9322
vn -0.3723 -0.2306 -0.8990
vn -0.6831 -0.2095 -0.6996
vn -0.9343 -0.3565 -0.0017
vn -0.9420 -0.2302 0.2441
vn -0.9952 -0.0979 -0.0067
vn -0.9365 -0.2210 -0.2723
vn -0.9213 0.1951 -0.3364
vn -0.9474 0.1618 0.2761
vn -0.9313 0.3576 -0.0688
vn -0.7714 -0.5890 0.2409
vn -0.6880 -0.4532 0.5668
vn -0.7832 -0.5412 -0.3061
vn -0.6749 -0.7368 -0.0397
vn -0.7810 -0.1532 -0.6055
vn -0.6855 -0.3608 -0.6324
vn -0.7810 -0.0945 0.6174
vn -0.6728 0.3414 0.6564
vn -0.7181 0.5912 -0.3671
vn -0.7035 0.3943 -0.5913
vn -0.7735 0.5461 0.3216
vn -0.6415 0.7645 -0.0631
vn 0.4552 -0.5835 -0.6726
vn 0.4063 -0.4499 -0.7953
vn 0.3917 0.1490 -0.9079
vt 0.524360 0.117460
vt 0.524250 0.133610
vt 0.398410 0.133690
vt 0.398910 0.117470
vt 0.524250 0.150630
vt 0.398700 0.150640
vt 0.380750 0.133510
vt 0.380700 0.117310
vt 0.380640 0.150670
vt 0.524180 0.168240
vt 0.398550 0.168140
vt 0.398590 0.133940
vt 0.340640 0.150680
vt 0.341120 0.133750
vt 0.341060 0.117310
vt 0.524780 0.097620
vt 0.524850 0.117630
vt 0.398690 0.117210
vt 0.398760 0.097380
vt 0.380950 0.117060
vt 0.380610 0.096850
vt 0.341030 0.117220
vt 0.340690 0.096850
vt 0.398630 0.078550
vt 0.380880 0.078330
vt 0.340690 0.077560
vt 0.398630 0.068670
vt 0.380610 0.068200
vt 0.524780 0.069330
vt 0.524920 0.078690
vt 0.340690 0.068200
vt 0.420870 0.007480
vt 0.454660 0.007360
vt 0.449690 0.014960
vt 0.426000 0.015050
vt 0.411340 0.033240
vt 0.466050 0.033160
vt 0.457680 0.033060
vt 0.419010 0.033210
vt 0.423910 0.057830
vt 0.428120 0.050370
vt 0.451700 0.057730
vt 0.447610 0.050300
vt 0.438020 0.032820
vt 0.380490 0.168230
vt 0.340720 0.168230
vt 0.364670 0.049460
vt 0.354880 0.035580
vt 0.371220 0.033560
vt 0.380260 0.048900
vt 0.387120 0.035980
vt 0.360570 0.017080
vt 0.381880 0.017160
vt 0.359840 0.059470
vt 0.342420 0.037210
vt 0.386510 0.059560
vt 0.398270 0.037410
vt 0.352760 0.005030
vt 0.389280 0.005160
vt 0.398480 0.168220
s 1
usemtl mat_17
f 1/1/1 2/2/2 3/3/3
f 1/1/1 3/3/3 4/4/4
f 2/2/2 5/5/5 6/6/6
f 2/2/2 6/6/6 3/3/7
f 4/4/8 3/3/9 7/7/10
f 4/4/8 7/7/10 8/8/11
f 3/3/9 9/9/12 7/7/10
f 6/6/13 5/5/14 10/10/15
f 6/6/13 10/10/15 11/11/16
f 11/11/16 9/9/17 6/6/13
f 12/12/18 6/6/6 9/9/19
f 7/7/20 9/9/21 13/13/22
f 7/7/20 13/13/22 14/14/23
f 8/8/24 7/7/25 14/14/26
f 8/8/24 14/14/26 15/15/27
f 16/16/28 17/17/29 18/18/30
f 16/16/28 18/18/30 19/19/31
f 19/19/31 18/18/30 20/20/32
f 19/19/33 20/20/34 21/21/35
f 21/21/36 20/20/37 22/22/38
f 21/21/36 22/22/38 23/23/39
f 16/16/40 19/19/41 24/24/42
f 24/24/42 19/19/41 21/21/43
f 24/24/44 21/21/45 25/25/46
f 23/23/47 25/25/46 21/21/48
f 23/23/47 26/26/49 25/25/46
f 27/27/50 24/24/51 25/25/46
f 27/27/50 25/25/46 28/28/52
f 27/27/16 29/29/53 30/30/54
f 27/27/55 30/30/54 24/24/56
f 28/28/57 25/25/46 26/26/58
f 28/28/57 26/26/58 31/31/59
f 16/16/60 24/24/61 30/30/62
f 32/32/63 33/33/1 34/34/64
f 32/32/63 34/34/64 35/35/65
f 36/36/66 32/32/2 35/35/67
f 33/33/68 37/37/28 38/38/69
f 33/33/70 38/38/71 34/34/72
f 36/36/73 35/35/74 39/39/75
f 40/40/76 36/36/77 39/39/78
f 40/40/79 39/39/80 41/41/81
f 42/42/54 40/40/82 41/41/83
f 42/42/84 41/41/85 43/43/86
f 37/37/87 42/42/88 43/43/89
f 37/37/87 43/43/89 38/38/90
f 35/35/91 34/34/92 44/44/93
f 34/34/94 38/38/95 44/44/96
f 38/38/95 43/43/97 44/44/96
f 39/39/98 35/35/99 44/44/100
f 41/41/101 39/39/98 44/44/100
f 43/43/102 41/41/103 44/44/104
f 9/9/105 45/45/106 46/46/107
f 9/9/105 46/46/107 13/13/108
f 47/47/109 48/48/110 49/49/111
f 50/50/112 47/47/109 49/49/111
f 51/51/113 50/50/112 49/49/111
f 48/48/110 52/52/114 49/49/111
f 53/53/115 51/51/113 49/49/111
f 52/52/114 53/53/115 49/49/111
f 54/54/116 48/48/110 47/47/109
f 54/54/116 55/55/117 48/48/110
f 56/56/118 47/47/109 50/50/112
f 56/56/118 54/54/119 47/47/109
f 57/57/120 50/50/112 51/51/113
f 57/57/120 56/56/121 50/50/112
f 55/55/122 52/52/114 48/48/110
f 55/55/122 58/58/123 52/52/114
f 59/59/124 51/51/113 53/53/115
f 59/59/124 57/57/125 51/51/113
f 58/58/126 53/53/115 52/52/114
f 58/58/126 59/59/127 53/53/115
f 60/60/128 45/45/129 9/9/130
