# Blender 4.4.3
# www.blender.org
mtllib meshLeftArm2_MacmeshLeftArm1.mtl
o node_Scene_132_mesh_mesh0
v 0.559404 1.247804 -0.056818
v 0.556880 1.159938 -0.065032
v 0.364384 1.161631 -0.073121
v 0.363507 1.245166 -0.084698
v 0.557677 1.151746 0.003396
v 0.364034 1.126625 0.018178
v 0.556659 1.159747 0.077225
v 0.363859 1.157384 0.082706
v 0.559773 1.263554 0.003395
v 0.365059 1.282171 0.006110
v 0.361279 1.243554 0.079092
v 0.556168 1.230996 0.077226
vn 0.0994 -0.0639 -0.9930
vn 0.0471 0.1050 -0.9934
vn 0.0995 -0.0640 -0.9930
vn 0.1446 -0.1381 -0.9798
vn 0.0638 -0.9687 -0.2401
vn 0.1308 -0.9914 -0.0046
vn 0.0811 -0.9965 0.0216
vn 0.0140 -0.9362 -0.3512
vn 0.0807 -0.9558 0.2827
vn 0.0811 -0.9965 0.0220
vn 0.0805 -0.9557 0.2830
vn 0.0309 -0.9000 0.4348
vn 0.0768 0.9943 0.0743
vn 0.0265 0.9682 -0.2487
vn 0.0594 0.9493 -0.3087
vn 0.1017 0.9932 0.0569
vn 0.0840 0.8926 0.4429
vn 0.0768 0.9942 0.0747
vn 0.0840 0.8927 0.4428
vn 0.0679 0.9097 0.4097
vn 0.0269 0.0084 0.9996
vn 0.0344 0.0001 0.9994
vn 0.0195 0.0191 0.9996
vt 0.682130 0.347000
vt 0.678850 0.345650
vt 0.678640 0.247930
vt 0.678100 0.247980
vt 0.706190 0.346010
vt 0.712020 0.248950
vt 0.735690 0.345470
vt 0.736000 0.249120
vt 0.706190 0.347170
vt 0.707200 0.249630
vt 0.734560 0.247920
vt 0.735690 0.345290
s 1
usemtl mat_17
f 1/1/1 2/2/2 3/3/3
f 1/1/1 3/3/3 4/4/4
f 2/2/5 5/5/6 6/6/7
f 2/2/5 6/6/7 3/3/8
f 6/6/7 5/5/6 7/7/9
f 6/6/10 7/7/11 8/8/12
f 9/9/13 1/1/14 4/4/15
f 9/9/13 4/4/15 10/10/16
f 9/9/13 10/10/16 11/11/17
f 9/9/18 11/11/19 12/12/20
f 8/8/21 7/7/22 12/12/21
f 8/8/21 12/12/21 11/11/23
