# Blender 4.4.3
# www.blender.org
mtllib meshLeftFoot.mtl
o Scene_104_mesh_mesh0
v 0.103185 0.353892 -0.050610
v 0.112032 0.354877 -0.083624
v 0.071124 0.278708 -0.104162
v 0.111542 0.279047 -0.149047
v 0.137746 0.355105 -0.096848
v 0.165983 0.282430 -0.154137
v 0.171122 0.355822 -0.105465
v 0.210350 0.277871 -0.128885
v 0.208882 0.354280 -0.077874
v 0.241106 0.276479 -0.093411
v 0.219560 0.353147 -0.047540
v 0.244702 0.296840 -0.009071
v 0.212524 0.352216 -0.022589
v 0.195871 0.351746 -0.007999
v 0.212614 0.306334 0.038797
v 0.170453 0.350872 0.002473
v 0.164450 0.308432 0.067153
v 0.110314 0.311113 0.045625
v 0.137198 0.352108 -0.005336
v 0.082556 0.307454 -0.008457
v 0.164894 0.367129 -0.047789
v 0.111634 0.352630 -0.017462
v 0.179131 0.220772 0.192037
v 0.249528 0.211971 0.167505
v 0.178622 0.185217 0.283090
v 0.248964 0.181334 0.273484
v 0.178479 0.196763 0.409219
v 0.248873 0.191741 0.383356
v 0.291749 0.178754 0.140188
v 0.311219 0.114995 0.274084
v 0.286458 0.177565 -0.046784
v 0.290942 0.115648 -0.020885
v 0.257712 0.199758 -0.135098
v 0.184880 0.199672 -0.200950
v 0.273660 0.115049 -0.125636
v 0.243100 0.125455 -0.195430
v 0.187966 0.144553 -0.236395
v 0.112521 0.204296 -0.196293
v 0.115859 0.144923 -0.231307
v 0.045326 0.122606 -0.175970
v 0.060643 0.205747 -0.144659
v 0.023065 0.116349 -0.106305
v 0.049387 0.210819 -0.048162
v 0.041956 0.117288 0.051821
v 0.049030 0.211411 0.042826
v 0.101566 0.221135 0.191731
v 0.084820 0.185689 0.282909
v 0.076779 0.193478 0.400724
v 0.059277 0.190164 0.139357
v 0.044026 0.146868 0.253913
v 0.022914 0.122101 0.293481
v 0.019212 0.117900 0.129772
v 0.012398 0.118307 0.187529
v 0.076779 0.193478 0.400724
v 0.022914 0.122101 0.293481
v 0.070991 0.152505 0.403913
v 0.024084 0.093464 0.304581
v 0.012398 0.118307 0.187529
v 0.014811 0.069328 0.183125
v 0.019212 0.117900 0.129772
v 0.021626 0.068921 0.125369
v 0.041956 0.117288 0.051821
v 0.044368 0.068309 0.047417
v 0.025477 0.067372 -0.110709
v 0.023065 0.116349 -0.106305
v 0.047704 0.066816 -0.180329
v 0.045326 0.122606 -0.175970
v 0.115859 0.144923 -0.231307
v 0.118121 0.066127 -0.235518
v 0.070004 0.123315 0.394918
v 0.178479 0.196763 0.409219
v 0.178199 0.155440 0.419901
v 0.248873 0.191741 0.383356
v 0.256631 0.149785 0.386133
v 0.177258 0.130163 0.411827
v 0.254959 0.122626 0.378791
v 0.311219 0.114995 0.274084
v 0.313749 0.083362 0.286584
v 0.293354 0.066669 -0.025288
v 0.290942 0.115648 -0.020885
v 0.276072 0.066071 -0.130041
v 0.273660 0.115049 -0.125636
v 0.245460 0.065762 -0.199765
v 0.243100 0.125455 -0.195430
v 0.190228 0.065755 -0.240606
v 0.187966 0.144553 -0.236395
v 0.118121 0.066127 -0.235518
v 0.115859 0.144923 -0.231307
v 0.177258 0.130163 0.411827
v 0.070004 0.123315 0.394918
v 0.024084 0.093464 0.304581
v 0.254959 0.122626 0.378791
v 0.313749 0.083362 0.286584
v 0.014811 0.069328 0.183125
v 0.293354 0.066669 -0.025288
v 0.021626 0.068921 0.125369
v 0.276072 0.066071 -0.130041
v 0.044368 0.068309 0.047417
v 0.245460 0.065762 -0.199765
v 0.025477 0.067372 -0.110709
v 0.190228 0.065755 -0.240606
v 0.047704 0.066816 -0.180329
v 0.118121 0.066127 -0.235518
vn -0.6230 0.7811 0.0408
vn -0.4649 0.8067 -0.3649
vn -0.8756 0.4431 -0.1925
vn -0.4273 0.5439 -0.7223
vn -0.1752 0.8050 -0.5668
vn 0.1745 0.5430 -0.8214
vn 0.1995 0.7892 -0.5808
vn 0.5944 0.4316 -0.6785
vn 0.5729 0.7201 -0.3915
vn 0.8735 0.3689 -0.3177
vn 0.7041 0.7101 -0.0082
vn 0.8492 0.4835 0.2124
vn 0.5004 0.7920 0.3496
vn 0.3906 0.7890 0.4742
vn 0.4915 0.7300 0.4749
vn 0.0709 0.8563 0.5116
vn 0.0937 0.8187 0.5665
vn -0.4064 0.7682 0.4946
vn -0.2572 0.8301 0.4947
vn -0.8141 0.5150 0.2683
vn 0.0273 0.9969 0.0731
vn -0.4361 0.8341 0.3378
vn -0.4417 0.8964 -0.0373
vn 0.1257 0.8591 0.4961
vn 0.4306 0.8323 0.3491
vn 0.0734 0.9741 0.2139
vn 0.4245 0.9016 0.0832
vn 0.0279 0.9968 -0.0752
vn 0.4251 0.9022 -0.0731
vn 0.8726 0.4647 0.1502
vn 0.9633 0.1957 0.1835
vn 0.9724 0.1893 -0.1366
vn 0.9918 -0.0113 -0.1271
vn 0.8112 0.3200 -0.4895
vn 0.3147 0.5151 -0.7973
vn 0.9488 0.1193 -0.2924
vn 0.7481 0.2098 -0.6296
vn 0.2425 0.2805 -0.9287
vn -0.3573 0.4825 -0.7997
vn -0.3508 0.3291 -0.8767
vn -0.7903 0.2537 -0.5577
vn -0.8206 0.3894 -0.4182
vn -0.9722 0.2007 -0.1208
vn -0.9560 0.2931 -0.0120
vn -0.8143 0.5148 0.2681
vn -0.9804 0.1882 -0.0584
vn -0.9166 0.3814 0.1203
vn -0.8450 0.5175 0.1352
vn -0.6081 0.7747 0.1735
vn -0.8756 0.4432 -0.1922
vn -0.8449 0.5176 0.1352
vn -0.4050 0.8398 0.3614
vn -0.3796 0.9217 0.0798
vn -0.5125 0.8570 -0.0530
vn -0.7894 0.5989 0.1350
vn -0.7335 0.6785 0.0410
vn -0.6704 0.7392 0.0642
vn -0.6705 0.7391 0.0642
vn -0.9171 0.3543 0.1829
vn -0.9640 0.2407 -0.1133
vn -0.9401 0.3393 0.0346
vn -0.7997 0.4601 0.3857
vn -0.9160 0.3996 0.0344
vn -0.8756 0.4431 -0.1923
vn -0.2573 0.8301 0.4948
vn -0.4843 0.7564 0.4397
vn -0.7365 0.5328 0.4167
vn -0.8208 0.5631 0.0961
vn -0.9171 0.3541 0.1830
vn -0.7809 0.1124 0.6145
vn -0.9537 -0.1112 0.2795
vn -0.9401 0.3391 0.0346
vn -0.9843 -0.1733 -0.0326
vn -0.9640 0.2406 -0.1133
vn -0.9603 -0.1814 -0.2120
vn -0.9841 -0.1627 -0.0716
vn -0.9987 -0.0498 -0.0100
vn -0.9722 0.2006 -0.1208
vn -0.8147 0.1603 -0.5573
vn -0.7903 0.2536 -0.5578
vn -0.3509 0.3289 -0.8768
vn -0.2507 0.1678 -0.9534
vn -0.5951 0.0250 0.8033
vn -0.9536 -0.1113 0.2797
vn -0.4028 -0.2376 0.8839
vn 0.0462 0.1694 0.9845
vn 0.1300 0.0050 0.9915
vn 0.5937 0.1832 0.7836
vn 0.6302 -0.0017 0.7764
vn 0.1558 -0.6169 0.7714
vn -0.3193 -0.4954 0.8079
vn -0.3299 0.0095 0.9440
vn 0.0460 0.1692 0.9845
vn -0.0717 0.1012 0.9923
vn -0.3298 0.0096 0.9440
vn 0.5556 -0.5217 0.6475
vn 0.9633 0.1956 0.1837
vn 0.6976 0.3329 0.6345
vn 0.6303 -0.0017 0.7763
vn 0.9701 0.1114 0.2154
vn 0.6304 -0.0017 0.7763
vn 0.7533 -0.0038 0.6577
vn 0.9634 0.1956 0.1835
vn 0.7533 -0.0037 0.6577
vn 0.9703 0.1243 0.2075
vn 0.9942 0.0600 -0.0888
vn 0.9714 0.0613 -0.2295
vn 0.8457 -0.0124 -0.5334
vn 0.7481 0.2097 -0.6296
vn 0.4122 0.1159 -0.9037
vn 0.2424 0.2803 -0.9288
vn -0.2507 0.1677 -0.9534
vn -0.3508 0.3289 -0.8768
vn 0.4247 0.9015 0.0831
vn 0.6727 0.7331 0.1007
vn 0.9489 0.2882 0.1282
vn -0.0781 -0.5600 0.8248
vn 0.0135 -0.9549 0.2966
vn 0.1546 -0.7845 0.6006
vn 0.0136 -0.9739 0.2265
vn 0.0139 -0.9955 0.0939
vn 0.0141 -0.9994 0.0314
vn 0.0064 -0.9999 0.0158
vt 0.920900 0.951090
vt 0.916950 0.962290
vt 0.926160 0.970720
vt 0.912020 0.982600
vt 0.905350 0.966800
vt 0.892890 0.983980
vt 0.890270 0.969760
vt 0.877260 0.977400
vt 0.873170 0.960460
vt 0.866400 0.962040
vt 0.868290 0.950210
vt 0.865040 0.939810
vt 0.871410 0.941760
vt 0.878920 0.936800
vt 0.876270 0.927160
vt 0.890380 0.933230
vt 0.893180 0.919620
vt 0.912250 0.925240
vt 0.905430 0.935820
vt 0.922080 0.939450
vt 0.893030 0.950200
vt 0.917000 0.939900
vt 0.892010 0.893500
vt 0.869750 0.899400
vt 0.892010 0.876830
vt 0.869750 0.879290
vt 0.892010 0.855470
vt 0.869750 0.861740
vt 0.856370 0.905960
vt 0.849950 0.884630
vt 0.858270 0.950270
vt 0.856730 0.944220
vt 0.867530 0.976560
vt 0.890650 0.992100
vt 0.862320 0.969030
vt 0.872100 0.985520
vt 0.889630 0.995160
vt 0.913550 0.990930
vt 0.912450 0.993880
vt 0.934660 0.980730
vt 0.929910 0.978640
vt 0.941600 0.964220
vt 0.933350 0.950320
vt 0.935420 0.926760
vt 0.933350 0.928750
vt 0.916540 0.893500
vt 0.921700 0.876830
vt 0.924190 0.857540
vt 0.929960 0.905910
vt 0.934560 0.886470
vt 0.941180 0.879740
vt 0.942530 0.908250
vt 0.944620 0.894570
vt 0.954650 0.933250
vt 0.961240 0.939620
vt 0.972140 0.933680
vt 0.984040 0.939740
vt 0.960420 0.943770
vt 0.984860 0.943890
vt 0.960420 0.947920
vt 0.984860 0.948190
vt 0.960420 0.956550
vt 0.984860 0.957240
vt 0.984860 0.975100
vt 0.960420 0.974490
vt 0.984860 0.981520
vt 0.957030 0.981060
vt 0.952060 0.992460
vt 0.985000 0.992070
vt 0.985670 0.934010
vt 0.954890 0.926530
vt 0.971850 0.926450
vt 0.954850 0.921500
vt 0.971370 0.920780
vt 0.983540 0.926470
vt 0.984080 0.920620
vt 0.960420 0.913810
vt 0.984860 0.913390
vt 0.984860 0.884420
vt 0.960420 0.885050
vt 0.984830 0.870720
vt 0.962660 0.870800
vt 0.984830 0.864360
vt 0.957300 0.864280
vt 0.984830 0.858720
vt 0.954600 0.858510
vt 0.984860 0.854420
vt 0.952370 0.854110
vt 0.983940 0.822710
vt 0.979890 0.841230
vt 0.961380 0.849170
vt 0.976110 0.809320
vt 0.956670 0.799180
vt 0.947000 0.850800
vt 0.898720 0.802870
vt 0.933680 0.849660
vt 0.874590 0.805910
vt 0.915700 0.845780
vt 0.858550 0.811260
vt 0.879260 0.849170
vt 0.849180 0.820810
vt 0.863200 0.845380
vt 0.850430 0.833260
s 1
usemtl mat_17
f 1/1/1 2/2/2 3/3/3
f 4/4/4 3/3/3 2/2/2
f 4/4/4 2/2/2 5/5/5
f 6/6/6 4/4/4 5/5/5
f 6/6/6 5/5/5 7/7/7
f 6/6/6 7/7/7 8/8/8
f 8/8/8 7/7/7 9/9/9
f 8/8/8 9/9/9 10/10/10
f 11/11/11 10/10/10 9/9/9
f 11/11/11 12/12/12 10/10/10
f 13/13/13 12/12/12 11/11/11
f 14/14/14 12/12/12 13/13/13
f 14/14/14 15/15/15 12/12/12
f 16/16/16 15/15/15 14/14/14
f 16/16/16 17/17/17 15/15/15
f 18/18/18 17/17/17 16/16/16
f 18/18/18 16/16/16 19/19/19
f 19/19/19 20/20/20 18/18/18
f 19/19/19 16/16/16 21/21/21
f 9/9/9 7/7/7 21/21/21
f 16/16/16 14/14/14 21/21/21
f 14/14/14 13/13/13 21/21/21
f 13/13/13 11/11/11 21/21/21
f 11/11/11 9/9/9 21/21/21
f 22/22/22 19/19/19 21/21/21
f 1/1/23 22/22/22 21/21/21
f 2/2/2 1/1/23 21/21/21
f 5/5/5 2/2/2 21/21/21
f 7/7/7 5/5/5 21/21/21
f 23/23/24 15/15/15 17/17/17
f 23/23/24 17/17/17 18/18/18
f 23/23/24 24/24/25 15/15/15
f 25/25/26 24/24/25 23/23/24
f 25/25/26 26/26/27 24/24/25
f 27/27/28 26/26/27 25/25/26
f 27/27/28 28/28/29 26/26/27
f 24/24/25 26/26/27 29/29/30
f 26/26/27 30/30/31 29/29/30
f 15/15/15 24/24/25 29/29/30
f 15/15/15 29/29/30 12/12/12
f 12/12/12 29/29/30 31/31/32
f 12/12/12 31/31/32 10/10/10
f 29/29/30 30/30/31 32/32/33
f 29/29/30 32/32/33 31/31/32
f 33/33/34 10/10/10 31/31/32
f 33/33/34 8/8/8 10/10/10
f 33/33/34 6/6/6 8/8/8
f 33/33/34 34/34/35 6/6/6
f 32/32/33 35/35/36 33/33/34
f 35/35/36 36/36/37 33/33/34
f 36/36/37 34/34/35 33/33/34
f 36/36/37 37/37/38 34/34/35
f 6/6/6 34/34/35 38/38/39
f 34/34/35 39/39/40 38/38/39
f 6/6/6 38/38/39 4/4/4
f 38/38/39 39/39/40 40/40/41
f 38/38/39 40/40/41 41/41/42
f 4/4/4 38/38/39 41/41/42
f 4/4/4 41/41/42 3/3/3
f 41/41/42 40/40/41 42/42/43
f 41/41/42 42/42/43 43/43/44
f 3/3/3 41/41/42 43/43/44
f 3/3/3 43/43/44 20/20/45
f 43/43/44 42/42/43 44/44/46
f 43/43/44 44/44/46 45/45/47
f 20/20/48 43/43/44 45/45/47
f 22/22/49 3/3/50 20/20/51
f 20/20/20 45/45/47 18/18/18
f 46/46/52 18/18/18 45/45/47
f 23/23/24 18/18/18 46/46/52
f 25/25/26 23/23/24 46/46/52
f 25/25/26 46/46/52 47/47/53
f 27/27/28 25/25/26 47/47/53
f 27/27/28 47/47/53 48/48/54
f 47/47/53 46/46/52 49/49/55
f 46/46/52 45/45/47 49/49/55
f 47/47/53 49/49/55 50/50/56
f 48/48/57 47/47/53 50/50/56
f 48/48/58 50/50/56 51/51/59
f 52/52/60 49/49/55 45/45/47
f 44/44/46 52/52/60 45/45/47
f 52/52/60 53/53/61 49/49/55
f 53/53/61 51/51/59 50/50/56
f 53/53/61 50/50/56 49/49/55
f 22/22/62 1/1/63 3/3/64
f 19/19/65 22/22/66 20/20/67
f 54/54/68 55/55/69 56/56/70
f 56/56/70 55/55/69 57/57/71
f 57/57/71 55/55/69 58/58/72
f 57/57/71 58/58/72 59/59/73
f 59/59/73 58/58/72 60/60/74
f 59/59/73 60/60/74 61/61/75
f 61/61/75 60/60/74 62/62/46
f 61/61/75 62/62/46 63/63/76
f 62/62/46 64/64/77 63/63/76
f 62/62/46 65/65/78 64/64/77
f 65/65/78 66/66/79 64/64/77
f 65/65/78 67/67/80 66/66/79
f 66/66/79 67/67/80 68/68/81
f 66/66/79 68/68/81 69/69/82
f 56/56/83 57/57/84 70/70/85
f 71/71/86 56/56/83 72/72/87
f 73/73/88 71/71/86 72/72/87
f 73/73/88 72/72/87 74/74/89
f 74/74/89 72/72/87 75/75/90
f 72/72/87 70/70/91 75/75/90
f 72/72/87 56/56/92 70/70/91
f 71/71/93 54/54/94 56/56/95
f 74/74/89 75/75/90 76/76/96
f 77/77/97 73/73/98 74/74/99
f 77/77/100 74/74/101 76/76/102
f 77/77/103 76/76/104 78/78/105
f 79/79/106 77/77/103 78/78/105
f 79/79/106 80/80/33 77/77/103
f 81/81/107 80/80/33 79/79/106
f 81/81/107 82/82/36 80/80/33
f 83/83/108 82/82/36 81/81/107
f 83/83/108 84/84/109 82/82/36
f 85/85/110 84/84/109 83/83/108
f 85/85/110 86/86/111 84/84/109
f 87/87/112 86/86/111 85/85/110
f 87/87/112 88/88/113 86/86/111
f 26/26/114 28/28/115 30/30/116
f 32/32/33 33/33/34 31/31/32
f 34/34/35 37/37/38 39/39/40
f 89/89/90 90/90/117 91/91/118
f 89/89/90 91/91/118 92/92/119
f 91/91/118 93/93/120 92/92/119
f 91/91/118 94/94/121 93/93/120
f 94/94/121 95/95/122 93/93/120
f 94/94/121 96/96/123 95/95/122
f 96/96/123 97/97/123 95/95/122
f 96/96/123 98/98/123 97/97/123
f 98/98/123 99/99/123 97/97/123
f 98/98/123 100/100/123 99/99/123
f 100/100/123 101/101/123 99/99/123
f 100/100/123 102/102/123 101/101/123
f 103/103/123 101/101/123 102/102/123
