# Blender 4.4.3
# www.blender.org
mtllib meshRightArm2_MacmeshRightArm1.mtl
o node_Scene_142_mesh_mesh0
v -0.575027 1.238730 -0.057698
v -0.422720 1.241617 -0.058455
v -0.423453 1.174759 -0.049708
v -0.571586 1.185475 -0.057859
v -0.592729 1.281329 -0.002383
v -0.565715 1.278965 0.010668
v -0.422948 1.286622 0.010282
v -0.571586 1.185475 -0.057859
v -0.423453 1.174759 -0.049708
v -0.422499 1.131024 0.021502
v -0.568384 1.146427 0.010380
v -0.615412 1.143764 -0.063061
v -0.562176 1.231929 0.060722
v -0.419830 1.240025 0.067385
v -0.587332 1.233698 0.062944
v -0.421794 1.171077 0.070020
v -0.570070 1.180276 0.060679
v -0.589898 1.150660 -0.006434
v -0.419830 1.240025 0.067385
v -0.562176 1.231929 0.060722
v -0.595704 1.149506 0.062100
v -0.587332 1.233698 0.062944
v -0.422720 1.241617 -0.058455
v -0.396346 1.256844 -0.035410
v -0.396778 1.176003 -0.035598
v -0.423453 1.174759 -0.049708
v -0.384950 1.214985 0.014025
v -0.396326 1.155782 0.019748
v -0.395756 1.279426 0.010998
v -0.395801 1.181595 0.057956
v -0.395486 1.240625 0.058093
v -0.422499 1.131024 0.021502
v -0.421794 1.171077 0.070020
v -0.422948 1.286622 0.010282
v -0.419830 1.240025 0.067385
vn 0.0364 -0.1077 -0.9935
vn 0.4042 -0.1092 -0.9081
vn 0.2612 -0.3945 -0.8810
vn 0.0890 0.1756 -0.9804
vn 0.1879 -0.1032 -0.9767
vn 0.0712 0.0980 -0.9926
vn 0.1834 0.8293 -0.5279
vn 0.4134 0.8750 -0.2520
vn 0.0902 0.8486 -0.5213
vn -0.0144 0.8484 -0.5291
vn 0.1826 0.8295 -0.5279
vn 0.0174 0.9591 -0.2825
vn -0.0145 0.8484 -0.5291
vn 0.0893 0.8486 -0.5214
vn 0.0709 0.8602 -0.5051
vn 0.2212 -0.8396 -0.4961
vn 0.2977 -0.6060 -0.7376
vn 0.1335 -0.9562 -0.2606
vn 0.2213 -0.8385 -0.4979
vn -0.0968 -0.9899 0.1040
vn 0.3411 -0.8104 -0.4764
vn 0.3964 -0.7217 -0.5674
vn 0.2218 -0.8384 -0.4978
vn -0.0490 0.7561 0.6526
vn 0.0159 0.2390 0.9709
vn 0.1138 0.5469 0.8294
vn 0.1584 0.9310 0.3290
vn 0.2212 0.5915 0.7754
vn -0.0520 0.8727 0.4855
vn 0.2874 0.8408 0.4588
vn 0.2214 0.5912 0.7755
vn 0.2656 -0.7727 0.5765
vn 0.1753 -0.2952 0.9392
vn 0.0187 -0.6066 0.7948
vn 0.1962 -0.9474 0.2529
vn 0.0243 -0.8672 0.4973
vn -0.3040 -0.9224 0.2381
vn -0.3045 -0.9223 0.2380
vn -0.3037 -0.9179 0.2553
vn -0.2446 -0.7867 0.5667
vn 0.1321 -0.1203 0.9839
vn 0.1139 0.5469 0.8294
vn -0.0205 -0.2419 0.9701
vn 0.4025 -0.0043 0.9154
vn 0.4871 0.2915 0.8232
vn 0.4043 -0.1092 -0.9081
vn 0.9275 0.0227 -0.3731
vn 0.8550 -0.0381 -0.5172
vn 0.8549 -0.0381 -0.5173
vn 0.2614 -0.3945 -0.8809
vn 0.9999 -0.0054 0.0158
vn 0.8951 -0.4454 0.0173
vn 0.9906 0.1345 0.0237
vn 0.8605 -0.3743 0.3455
vn 0.8838 -0.0057 0.4677
vn 0.8110 -0.3073 0.4978
vn 0.9999 -0.0054 0.0162
vn 0.7856 -0.0056 0.6187
vn 0.3791 -0.8310 0.4072
vn 0.8199 -0.5693 -0.0606
vn 0.8110 -0.3074 0.4979
vn 0.2981 -0.6061 -0.7374
vn 0.8198 -0.5695 -0.0609
vn 0.4266 -0.8991 -0.0987
vn 0.3790 -0.8310 0.4073
vn 0.3543 -0.3683 0.8595
vn 0.2880 -0.8475 -0.4458
vn 0.2275 -0.9164 -0.3293
vn 0.5538 -0.8247 -0.1146
vn 0.0889 0.9944 -0.0577
vn 0.2533 0.9140 0.3170
vn 0.1287 0.8634 -0.4878
vn 0.0710 0.8602 -0.5051
vn 0.1280 0.8633 -0.4882
vn 0.2088 -0.2368 0.9489
vn 0.7311 -0.3425 0.5900
vn 0.7244 0.1758 0.6666
vn 0.2581 -0.0830 0.9625
vn 0.5935 0.1798 0.7845
vn 0.1138 0.5471 0.8293
vn 0.3702 0.2428 0.8966
vn 0.1585 0.9309 0.3290
vn 0.2316 -0.8495 0.4741
vn 0.5065 -0.8551 0.1105
vn 0.0795 -0.9895 0.1203
vt 0.229980 0.114010
vt 0.189590 0.114810
vt 0.189980 0.101770
vt 0.221530 0.098500
vt 0.232930 0.123190
vt 0.228650 0.125410
vt 0.189780 0.126250
vt 0.221510 0.099270
vt 0.189470 0.102050
vt 0.189480 0.081420
vt 0.224800 0.077870
vt 0.232060 0.098230
vt 0.227290 0.159800
vt 0.188510 0.161800
vt 0.231300 0.160130
vt 0.190150 0.071100
vt 0.225430 0.066280
vt 0.230440 0.071600
vt 0.189880 0.058960
vt 0.224800 0.060620
vt 0.230510 0.057030
vt 0.229470 0.050370
vt 0.188650 0.038140
vt 0.195010 0.042450
vt 0.195010 0.015360
vt 0.191440 0.015730
vt 0.210110 0.028000
vt 0.212290 0.008460
vt 0.209470 0.049920
vt 0.224200 0.017030
vt 0.224200 0.036810
vt 0.213680 0.000910
vt 0.228800 0.014230
vt 0.210110 0.053110
vt 0.227870 0.037290
s 1
usemtl mat_17
f 1/1/1 2/2/2 3/3/3
f 1/1/4 3/3/5 4/4/6
f 1/1/7 5/5/8 6/6/9
f 2/2/10 1/1/11 6/6/12
f 2/2/13 6/6/14 7/7/15
f 8/8/16 9/9/17 10/10/18
f 8/8/19 10/10/18 11/11/20
f 11/11/21 12/12/22 8/8/23
f 6/6/24 13/13/25 14/14/26
f 6/6/24 14/14/26 7/7/27
f 6/6/24 15/15/28 13/13/25
f 6/6/29 5/5/30 15/15/31
f 10/10/32 16/16/33 17/17/34
f 10/10/35 17/17/36 11/11/37
f 11/11/38 18/18/38 12/12/39
f 17/17/40 18/18/38 11/11/38
f 16/16/41 19/19/42 20/20/25
f 16/16/41 20/20/25 17/17/43
f 20/20/25 21/21/44 17/17/43
f 20/20/25 22/22/45 21/21/44
f 23/23/46 24/24/47 25/25/48
f 23/23/46 25/25/49 26/26/50
f 24/24/47 27/27/51 25/25/48
f 25/25/48 27/27/51 28/28/52
f 29/29/53 27/27/51 24/24/47
f 28/28/52 27/27/51 30/30/54
f 31/31/55 27/27/51 29/29/53
f 30/30/56 27/27/57 31/31/58
f 32/32/59 28/28/60 30/30/61
f 26/26/62 28/28/63 32/32/64
f 32/32/65 30/30/56 33/33/66
f 26/26/67 25/25/68 28/28/69
f 34/34/70 29/29/71 24/24/72
f 34/34/73 24/24/74 23/23/10
f 33/33/75 30/30/76 31/31/77
f 33/33/78 31/31/79 35/35/80
f 35/35/42 31/31/81 29/29/71
f 35/35/42 29/29/71 34/34/82
f 17/17/83 21/21/84 18/18/85
